<svg xmlns="http://www.w3.org/2000/svg" version="1.1" xmlns:xlink="http://www.w3.org/1999/xlink" width="16" height="16"><svg width="16" height="16" viewBox="0 0 16 16" fill="none" xmlns="http://www.w3.org/2000/svg">
<path d="M13.9857 8.55638L13.0575 10.1619H11.287L10.2834 10.1692L10.7888 11.0542L11.6884 12.6304C11.3336 13.0912 10.8139 13.3947 10.2369 13.4789L9.36953 11.9465L8.86777 11.0615L8.36601 11.9465L7.48435 13.5008H5.6135L7.55961 10.0631C8.07929 9.14517 9.05055 8.57101 10.0935 8.56735L13.9821 8.55272M15 7.96027L10.0935 7.97855C8.84268 7.98221 7.68863 8.66609 7.06144 9.77054L4.60999 14.0933H7.81766L8.86418 12.2464L9.91071 14.0933H9.92505C10.9322 14.0933 11.864 13.5447 12.3622 12.6523L11.2798 10.758L13.38 10.7506L14.9964 7.96392L15 7.96027Z" fill="white"></path>
<path d="M15 7.21784L10.1258 7.26172C8.85702 7.27269 7.67788 6.58515 7.0471 5.46242L4.60999 1.13971H7.71731L8.8176 3.07798L9.91071 1.13971H9.9573C10.925 1.16531 11.8102 1.69559 12.3048 2.5477L12.312 2.55867L11.287 4.41283L13.3657 4.39454L14.9964 7.21784H15Z" fill="white"></path>
<path d="M5.64579 4.34337L4.00074 1.46887L2.38436 4.35068L3.40939 6.15364L1.36651 6.16095C0.871914 7.04963 0.879085 8.13945 1.38084 9.02082L1.38801 9.03179L3.43805 9.0391L2.41303 10.8457L4.033 13.7166L5.67089 10.8347L6.48445 9.39384C7.11165 8.27842 7.10806 6.907 6.4737 5.7989L5.64579 4.35068V4.34337Z" fill="white"></path>
</svg><style>@media (prefers-color-scheme: light) { :root { filter: none; } }
@media (prefers-color-scheme: dark) { :root { filter: none; } }
</style></svg>